# xmcd
#
# Track frame offsets: 
#        150
#        14051
#        27115
#        40817
#        54094
#        67743
#        80874
#        94722
#        106285
#        119828
#        133211
#        147245
#        160655
#        174305
#        188034
#        201643
#        215332
#        228861
#        241481
#        255269
#
# Disc length: 3583 seconds
#
# Revision: 3
# Processed by: cddbd v1.5.2PL0 Copyright (c) Steve Scherf et al.
# Submitted via: ExactAudioCopy v1.0b1
#
DISCID=140dfd14
DTITLE=Various Artist - Eurosong 2008
DYEAR=2008
DGENRE=Pop
TTITLE0=Katy Satyn - Magical Sensation
TTITLE1=Raeven - Shut Down The Heat Machine
TTITLE2=Brahim - What I Like About You
TTITLE3=Eva Darche - We Breathe
TTITLE4=Femme Fatale - Décadence
TTITLE5=Kenza - Breaking All The Rules
TTITLE6=E.F.R. - My Guiding Star
TTITLE7=Ishtar - O Julissi Na Jalini
TTITLE8=Esther - Game Over
TTITLE9=Tanja Dexters - Addicted To You
TTITLE10=Ellis-T - My Music
TTITLE11=Tabitha Cycon - Rumour Has It
TTITLE12=Di Bono - I'm Not Sorry
TTITLE13=Nelson - When I Can't Find Love
TTITLE14=Geena Lisa - Wheel Of Time
TTITLE15=Francesco Palmeri - Vagabundo
TTITLE16=Paranoiacs - Shout It Out
TTITLE17=Elisa - Around The World
TTITLE18=A Butterfly Mind - Lonely Heart On Wheels
TTITLE19=Sandrine - I Feel The Same Way
EXTD=
EXTT0=
EXTT1=
EXTT2=
EXTT3=
EXTT4=
EXTT5=
EXTT6=
EXTT7=
EXTT8=
EXTT9=
EXTT10=
EXTT11=
EXTT12=
EXTT13=
EXTT14=
EXTT15=
EXTT16=
EXTT17=
EXTT18=
EXTT19=
PLAYORDER=
